<svg width="264.000000" height="230.000000" viewBox="0 0 264 230" fill="none" xmlns="http://www.w3.org/2000/svg" xmlns:xlink="http://www.w3.org/1999/xlink">
	<desc>
			Created with Pixso.
	</desc>
	<defs>
		<clipPath id="clip5_115">
			<rect id="лого 1" width="264.336426" height="229.486099" transform="translate(-0.876221 -0.342438)" fill="white" fill-opacity="0"/>
		</clipPath>
		<linearGradient x1="0.119873" y1="2.910889" x2="262.471161" y2="228.160797" id="paint_linear_5_116_0" gradientUnits="userSpaceOnUse">
			<stop stop-color="#9948BF"/>
			<stop offset="1.000000" stop-color="#4B2699"/>
		</linearGradient>
		<linearGradient x1="184.698944" y1="147.412811" x2="164.985275" y2="189.976135" id="paint_linear_5_117_0" gradientUnits="userSpaceOnUse">
			<stop stop-color="#004FFF"/>
			<stop offset="0.220000" stop-color="#0076FF"/>
			<stop offset="1.000000" stop-color="#00FFFF"/>
		</linearGradient>
		<linearGradient x1="64.399780" y1="150.199249" x2="104.727448" y2="174.215775" id="paint_linear_5_118_0" gradientUnits="userSpaceOnUse">
			<stop stop-color="#004FFF"/>
			<stop offset="1.000000" stop-color="#00FFFF"/>
		</linearGradient>
	</defs>
	<rect id="лого 1" width="264.336426" height="229.486099" transform="translate(-0.876221 -0.342438)" fill="#FFFFFF" fill-opacity="0"/>
	<g clip-path="url(#clip5_115)">
		<path id="Vector" d="M261.22 73.41C262.99 79.12 262.87 85.26 260.89 90.9L260.86 90.99C260.79 91.2 260.72 91.4 260.64 91.62C260.6 91.73 260.56 91.85 260.52 91.95C257.77 99.66 254.33 107.1 250.24 114.18L250.02 114.18C250.06 114.25 250.1 114.31 250.13 114.37L249.57 115.36C246.14 121.16 242.29 126.71 238.04 131.94C236.61 133.71 235.14 135.44 233.62 137.13C232.55 138.32 231.46 139.49 230.35 140.65C227.94 143.15 225.43 145.57 222.86 147.88C222.53 148.17 222.19 148.46 221.87 148.76L221.77 148.85C220.43 150.02 219.07 151.17 217.68 152.29C215.5 154.05 213.27 155.75 210.98 157.37C210.56 158.16 210.12 158.93 209.68 159.69C208.22 162.23 206.64 164.68 204.94 167.07C200.9 172.71 196.23 177.88 191.03 182.47L190.8 182.66C186.76 186.21 182.41 189.39 177.8 192.17C177.64 192.27 177.47 192.36 177.31 192.46C176.91 192.7 176.5 192.95 176.09 193.18C175.09 197.4 173.49 201.46 171.33 205.23C170.6 206.49 169.82 207.71 168.98 208.89C165.51 213.8 161.1 217.97 156.01 221.17C150.92 224.37 145.25 226.54 139.31 227.54C137.1 227.91 134.86 228.12 132.62 228.16C132.33 228.16 132.04 228.16 131.75 228.16C131.46 228.16 131.09 228.16 130.77 228.16C119.74 227.93 109.17 223.7 101.03 216.26C97.53 213.06 94.54 209.34 92.18 205.23C90.24 201.85 88.75 198.23 87.75 194.47C87.23 194.19 86.71 193.9 86.19 193.62L85.21 193.05C80.05 190.07 75.2 186.59 70.72 182.66L70.5 182.47C63.09 175.94 56.79 168.26 51.84 159.71C50.95 158.18 50.1 156.62 49.3 155.02C48.13 154.14 46.98 153.23 45.86 152.31C44.1 150.9 42.39 149.45 40.72 147.97L40.61 147.87C40.28 147.57 39.94 147.28 39.63 146.97C29.25 137.51 20.39 126.51 13.35 114.37L13.24 114.18C9.09 106.99 5.61 99.43 2.84 91.61C2.39 90.32 1.95 89.02 1.53 87.71C-0.45 81.53 -0.35 74.88 1.81 68.76L1.84 68.67C9.53 47.05 22.52 27.71 39.63 12.41L40.61 11.53C44.1 8.47 47.73 5.6 51.5 2.91C40.67 23.04 37.79 46.51 43.44 68.67C44.11 71.31 44.9 73.91 45.8 76.45C46.09 77.28 46.39 78.1 46.71 78.91C48.41 83.3 50.44 87.55 52.8 91.62C57.71 100.08 63.94 107.7 71.26 114.18C71.34 114.24 71.41 114.31 71.48 114.37C75.01 117.48 78.77 120.32 82.74 122.85C83.55 123.37 84.37 123.88 85.2 124.37C85.53 124.56 85.85 124.76 86.18 124.94C86.29 125.02 86.41 125.08 86.52 125.14C99.99 132.85 115.22 136.98 130.75 137.12L130.75 137.16C131.08 137.16 131.41 137.16 131.73 137.16L132.67 137.16C135.01 137.14 137.34 137.03 139.64 136.83C151.89 135.79 163.79 132.26 174.63 126.47C175.19 126.17 175.75 125.87 176.3 125.55C176.52 125.44 176.74 125.31 176.96 125.19C177.07 125.12 177.19 125.06 177.3 124.99C178.21 124.5 179.11 123.93 180 123.37C184.24 120.72 188.26 117.73 192.01 114.42L192.23 114.23C195.01 111.77 197.63 109.14 200.1 106.36C204.11 101.83 207.65 96.9 210.69 91.66C212.6 88.35 214.29 84.91 215.76 81.38C216.44 79.76 217.08 78.12 217.67 76.46C218.57 73.92 219.35 71.32 220.03 68.67C220.8 65.69 221.41 62.67 221.86 59.63C222.13 57.77 222.35 55.9 222.52 54.01C222.74 51.4 222.86 48.77 222.86 46.11C222.86 42.45 222.64 38.79 222.2 35.15C222.1 34.29 221.99 33.44 221.86 32.6C220.45 23.1 217.53 13.88 213.21 5.3C216.2 7.57 219.08 9.94 221.86 12.42C222.19 12.72 222.53 13.02 222.84 13.32C225.49 15.74 228.04 18.25 230.49 20.87C231.21 21.62 231.91 22.39 232.6 23.17C234.12 24.86 235.59 26.59 237.03 28.36C241.56 33.95 245.64 39.88 249.24 46.11L249.95 47.35C253.78 54.16 257.03 61.3 259.64 68.67C259.71 68.88 259.79 69.09 259.85 69.3C260.33 70.66 260.78 72.03 261.22 73.41Z" fill="url(#paint_linear_5_116_0)" fill-opacity="1.000000" fill-rule="nonzero"/>
		<path id="Vector" d="M201.64 141.91C200.22 145.05 198.58 148.09 196.72 150.99C196.09 151.97 195.44 152.92 194.75 153.87C194.28 154.52 193.79 155.18 193.27 155.83C192.2 157.24 191.07 158.6 189.88 159.92L189.43 160.42L189.38 160.47C188.77 161.14 188.14 161.8 187.5 162.44C186.5 163.45 185.47 164.43 184.4 165.39C183.88 165.85 183.35 166.31 182.82 166.76C181.67 167.74 180.48 168.66 179.27 169.56C178.29 170.28 177.3 170.98 176.27 171.66C174.09 173.09 171.83 174.4 169.51 175.59L168.48 176.08L168.31 176.16L168.01 176.31L167.83 176.39C163.6 178.4 159.18 179.97 154.63 181.09C156.05 177.95 157.69 174.91 159.55 172.01C160.17 171.03 160.83 170.07 161.52 169.13C162.01 168.47 162.51 167.81 163 167.17C164.07 165.76 165.2 164.4 166.38 163.08L166.84 162.58L166.89 162.53C167.51 161.86 168.13 161.2 168.77 160.57C169.77 159.55 170.81 158.56 171.87 157.62C172.39 157.16 172.92 156.7 173.45 156.24C174.6 155.26 175.79 154.33 177 153.45C177.99 152.72 178.99 152.02 180 151.35C182.18 149.91 184.44 148.6 186.76 147.42L187.79 146.93L187.96 146.85L188.27 146.7C188.35 147.03 188.45 147.36 188.56 147.68L188.44 146.64C192.67 144.62 197.09 143.03 201.64 141.91Z" fill="url(#paint_linear_5_117_0)" fill-opacity="1.000000" fill-rule="nonzero"/>
		<path id="Vector" d="M59.95 141.91C61.36 145.05 63 148.09 64.87 150.99C65.49 151.97 66.15 152.93 66.83 153.87C67.33 154.53 67.79 155.19 68.31 155.83C69.38 157.24 70.51 158.6 71.7 159.92L72.15 160.42L72.2 160.47C72.81 161.14 73.44 161.8 74.08 162.44C75.07 163.45 76.1 164.43 77.19 165.39C77.71 165.88 78.23 166.31 78.77 166.76C79.92 167.74 81.1 168.67 82.31 169.56C83.3 170.28 84.28 170.98 85.31 171.66C87.49 173.09 89.75 174.4 92.07 175.59C92.41 175.76 92.76 175.93 93.11 176.08L93.27 176.16L93.58 176.31L93.76 176.39C97.98 178.4 102.4 179.97 106.95 181.09C105.54 177.95 103.89 174.91 102.03 172.01C101.4 171.03 100.76 170.07 100.08 169.13C99.59 168.47 99.12 167.81 98.61 167.17C97.53 165.76 96.4 164.4 95.22 163.08C95.07 162.91 94.92 162.74 94.76 162.58L94.71 162.53C94.1 161.86 93.48 161.2 92.84 160.57C91.83 159.55 90.8 158.56 89.73 157.62C89.21 157.16 88.68 156.7 88.15 156.24C87 155.26 85.82 154.33 84.6 153.45C83.62 152.72 82.62 152.02 81.6 151.35C79.42 149.91 77.17 148.6 74.84 147.42C74.5 147.24 74.16 147.07 73.81 146.93L73.64 146.85L73.34 146.7C73.24 147.03 73.15 147.36 73.04 147.68L73.16 146.64C68.93 144.62 64.5 143.03 59.95 141.91Z" fill="url(#paint_linear_5_118_0)" fill-opacity="1.000000" fill-rule="nonzero"/>
	</g>
</svg>
